<?xml version="1.0" encoding="UTF-8" standalone="no"?>
<svg
   xml:space="preserve"
   height="81.260551"
   viewBox="0 0 623.30286 81.262585"
   width="623.30286"
   version="1.1"
   id="svg23"
   sodipodi:docname="schools.svg"
   inkscape:version="1.4.2 (f4327f4, 2025-05-13)"
   xmlns:inkscape="http://www.inkscape.org/namespaces/inkscape"
   xmlns:sodipodi="http://sodipodi.sourceforge.net/DTD/sodipodi-0.dtd"
   xmlns="http://www.w3.org/2000/svg"
   xmlns:svg="http://www.w3.org/2000/svg"><defs
     id="defs23" /><sodipodi:namedview
     id="namedview23"
     pagecolor="#ffffff"
     bordercolor="#000000"
     borderopacity="0.25"
     inkscape:showpageshadow="2"
     inkscape:pageopacity="0.0"
     inkscape:pagecheckerboard="0"
     inkscape:deskcolor="#d1d1d1"
     inkscape:zoom="0.72433118"
     inkscape:cx="420.38781"
     inkscape:cy="-100.09234"
     inkscape:window-width="1920"
     inkscape:window-height="1001"
     inkscape:window-x="-7"
     inkscape:window-y="-7"
     inkscape:window-maximized="1"
     inkscape:current-layer="svg23" /><g
     transform="matrix(0.52088874,0,0,-0.52088874,522.95652,65.293347)"
     id="g23"><g
       transform="matrix(1.666,0,0,1.666,-48.388,-31.529)"
       id="g22"><path
         d="m 104.66,43.271 c -8.283,0 -13.232,-6.872 -13.232,-13.515 0,-6.644 4.949,-13.517 13.232,-13.517 8.32,0 13.292,6.873 13.292,13.517 0,6.643 -4.972,13.515 -13.292,13.515 z m 5.465,-13.515 c 0,-3.722 -0.71,-9.966 -5.465,-9.966 -4.467,0 -5.404,5.42 -5.404,9.966 0,4.548 0.937,9.969 5.404,9.969 4.755,0 5.465,-6.246 5.465,-9.969"
         fill="#006633"
         id="path1" /><path
         d="m 144.42,42.54 h -11.086 l 3.54,-3.539 v -10.16 c -0.387,0.488 -10.872,13.699 -10.872,13.699 h -8.998 c 0,0 3.472,-3.474 3.537,-3.539 V 20.512 c -0.064,-0.065 -3.537,-3.541 -3.537,-3.541 h 11.3 c 0,0 -3.474,3.476 -3.538,3.541 V 34.06 c 0.388,-0.471 16.368,-19.86 16.368,-19.86 0,0 0.019,24.708 0.019,24.801 0.065,0.064 3.538,3.539 3.538,3.539 h -0.271"
         fill="#006633"
         id="path2" /><path
         d="m 67.496,83.041 6.139,11.124 C 72.176,92.798 71.442,92.368 70.088,91.439 62.666,86.344 53.531,85.132 44.353,77.582 38.126,72.459 35.252,65.034 35.252,65.034 c 0,0 8.357,9.387 20.995,14.069 5.098,1.889 8.653,2.926 11.249,3.938"
         fill="#ffcc33"
         id="path3" /><g
         fill="#006633"
         id="g21"><path
           d="M 64.223,77.105 C 57.571,74.984 49.648,72.965 41.53,67.487 35.207,63.22 31.535,55.94 31.535,55.94 c 0,0 8.915,8.916 21.875,11.959 2.608,0.612 4.797,1.123 6.631,1.549 l 4.182,7.657"
           id="path4" /><path
           d="m 86.429,30.644 -6.703,3.604 c -1.741,1.011 -2.362,2.241 -2.362,3.055 -0.023,0.387 0.209,0.887 0.609,1.312 0.629,0.67 1.556,1.054 2.546,1.054 0.519,0 1.13,-0.162 1.868,-0.497 0,-0.01 3.461,-3.412 3.461,-3.412 l 0.098,-0.098 3.77,5.895 -6.871,0.981 c -0.909,0.17 -1.965,0.17 -2.665,0.17 -6.229,0 -9.067,-3.708 -9.067,-7.152 0,-2.018 1.214,-4.834 4.62,-6.686 10e-4,0 6.704,-3.607 6.704,-3.607 0.584,-0.425 1.404,-1.019 1.404,-2.378 0,-2.438 -2.223,-3.324 -3.717,-3.324 -0.87,0 -1.644,0.222 -2.302,0.658 0,0.003 -3.813,3.76 -3.813,3.76 l -0.11,0.108 -3.113,-6.064 -2.135,2.678 c 0,0.014 -8.6,21.767 -8.6,21.767 L 60.023,42.54 H 55.761 L 46.948,20.674 c -0.003,0.001 -1.242,-1.576 -2.062,-2.619 l -2.809,3.219 V 54.759 C 51.037,61.86 56.829,63.301 56.815,63.3 53.63,63.012 46.978,62.413 39.2,58.08 34.082,55.23 30.043,51.333 30.043,51.333 l -0.009,-0.026 -0.006,0.007 C 28.51,48.463 26.403,43.72 24.341,38.624 L 14.08,57.356 H 0.629 l 4.3,-4.303 V 21.367 l -4.3,-4.301 H 15.341 L 10.97,21.367 V 45.95 l 9.612,-17.2 C 19.148,24.708 18.02,21.097 17.55,18.776 l 3.092,3.592 c 0,0 2.51,11.955 12.403,23.688 V 20.987 l -4.302,-4.014 h 15.294 l -10e-4,-0.002 h 10.722 c 0,0 -3.305,3.305 -3.407,3.406 0.052,0.13 1.297,3.222 1.351,3.354 h 7.73 c 0.049,-0.14 1.144,-3.225 1.189,-3.351 -0.097,-0.098 -3.408,-3.409 -3.408,-3.409 h 12.74 c 1.787,-0.046 6.401,-0.165 6.406,-0.166 0.915,-0.152 1.911,-0.226 3.044,-0.226 7.278,0 9.859,4.308 9.859,7.997 0,3.691 -2.681,5.473 -3.833,6.068 z m -32.34,-3.42 c 0.113,0.283 2.344,5.855 2.536,6.336 0.186,-0.483 2.32,-6.056 2.428,-6.336 h -4.964"
           id="path5" /><path
           d="m 66.164,46.941 c -2.035,-0.517 -3.551,-0.551 -4.655,-0.551 -3.206,0 -6.912,1.62 -6.912,6.171 0,4.534 3.189,6.275 7.602,6.275 0.793,0 2.465,-0.086 3.637,-0.534 l -0.258,-2.62 c -1,0.586 -2.172,0.775 -2.931,0.775 -2.603,0 -4.741,-1.086 -4.741,-3.896 0,-2.361 1.673,-3.792 4.017,-3.792 0.431,0 0.845,0.069 1.138,0.207 v 2.378 h -1.879 v 2.276 h 4.982 v -6.689"
           id="path6" /><path
           d="m 72.214,58.629 h 8.481 v -2.275 h -5.274 v -2.482 h 4.981 v -2.276 h -4.981 v -2.724 h 5.465 v -2.275 h -8.672 v 12.032"
           id="path7" /><path
           d="m 91.556,58.836 c 3.965,0 6.033,-2.361 6.033,-6.223 0,-3.827 -2.103,-6.223 -6.033,-6.223 -3.931,0 -6.033,2.396 -6.033,6.223 0,3.862 2.068,6.223 6.033,6.223 z m 0,-10.067 c 1.948,0 2.723,1.861 2.723,3.844 0,2.086 -0.775,3.844 -2.723,3.844 -1.949,0 -2.724,-1.758 -2.724,-3.844 0,-1.983 0.775,-3.844 2.724,-3.844"
           id="path8" /><path
           d="m 102.6,58.629 h 5.724 c 2.138,0 3.878,-0.965 3.878,-3.034 0,-1.603 -0.758,-2.672 -2.309,-3.034 v -0.034 c 1.034,-0.276 1.103,-1.19 1.707,-2.655 l 1.171,-3.275 h -3.344 l -0.69,2.172 c -0.654,2.068 -1.068,2.585 -2.258,2.585 h -0.672 V 46.597 H 102.6 Z m 3.207,-4.999 h 0.844 c 1.035,0 2.345,0.035 2.345,1.396 0,1.121 -1.12,1.328 -2.345,1.328 h -0.844 V 53.63"
           id="path9" /><path
           d="m 128.6,46.941 c -2.035,-0.517 -3.552,-0.551 -4.656,-0.551 -3.206,0 -6.912,1.62 -6.912,6.171 0,4.534 3.19,6.275 7.603,6.275 0.793,0 2.465,-0.086 3.636,-0.534 l -0.258,-2.62 c -0.999,0.586 -2.172,0.775 -2.931,0.775 -2.603,0 -4.74,-1.086 -4.74,-3.896 0,-2.361 1.672,-3.792 4.016,-3.792 0.431,0 0.845,0.069 1.138,0.207 v 2.378 h -1.879 v 2.276 h 4.983 v -6.689"
           id="path10" /><path
           d="m 134.29,58.629 h 8.481 v -2.275 h -5.275 v -2.482 h 4.983 v -2.276 h -4.983 v -2.724 h 5.465 v -2.275 h -8.671 v 12.032"
           id="path11" /><path
           d="m 10.222,3.903 c 0,-2.331 -1.513,-3.38 -3.734,-3.38 -2.221,0 -3.734,1.049 -3.734,3.38 v 5.284 h 2.27 V 4.281 c 0,-1.122 0.305,-2.074 1.464,-2.074 1.16,0 1.465,0.952 1.465,2.074 v 4.906 h 2.269 V 3.903"
           id="path12" /><path
           d="m 19.082,9.187 h 2.892 l 2.879,-5.784 h 0.024 l -0.036,5.784 h 2.075 V 0.669 H 24.097 L 21.119,6.49 h -0.024 l 0.073,-5.821 h -2.086 v 8.518"
           id="path13" /><path
           d="m 36.678,9.187 h 2.27 V 0.669 h -2.27 z"
           id="path14" /><path
           d="m 48.161,9.187 h 2.416 L 52.468,2.5 h 0.025 l 1.904,6.687 h 2.33 L 53.823,0.669 h -2.807 l -2.855,8.518"
           id="path15" /><path
           d="m 65.184,9.187 h 6.004 V 7.576 H 67.453 V 5.819 H 70.98 V 4.208 H 67.453 V 2.28 h 3.868 V 0.669 h -6.137 v 8.518"
           id="path16" /><path
           d="m 80.291,9.187 h 4.051 c 1.514,0 2.746,-0.684 2.746,-2.148 0,-1.135 -0.537,-1.891 -1.636,-2.147 V 4.867 C 86.185,4.672 86.233,4.025 86.66,2.988 L 87.49,0.669 H 85.123 L 84.635,2.207 C 84.171,3.671 83.878,4.038 83.036,4.038 H 82.561 V 0.669 h -2.27 z m 2.27,-3.539 h 0.597 c 0.733,0 1.659,0.024 1.659,0.989 0,0.793 -0.793,0.939 -1.659,0.939 H 82.561 V 5.648"
           id="path17" /><path
           d="m 95.739,2.769 c 0.586,-0.318 1.404,-0.562 2.343,-0.562 0.72,0 1.403,0.147 1.403,0.83 0,1.586 -4.026,0.586 -4.026,3.685 0,2.05 2.001,2.612 3.709,2.612 0.818,0 1.623,-0.123 2.197,-0.318 l -0.146,-1.757 c -0.586,0.268 -1.245,0.39 -1.892,0.39 -0.574,0 -1.525,-0.048 -1.525,-0.793 0,-1.378 4.026,-0.451 4.026,-3.526 0,-2.209 -1.854,-2.807 -3.746,-2.807 -0.793,0 -1.781,0.122 -2.538,0.366 l 0.195,1.88"
           id="path18" /><path
           d="m 110.36,9.187 h 2.27 V 0.669 h -2.27 z"
           id="path19" /><path
           d="m 123.62,7.503 h -2.1 v 1.684 h 6.468 V 7.503 H 125.89 V 0.669 h -2.27 v 6.834"
           id="path20" /><path
           d="m 137.63,3.879 -3.149,5.308 h 2.612 l 1.672,-3.417 1.647,3.417 h 2.611 l -3.124,-5.308 v -3.21 h -2.269 v 3.21"
           id="path21" /></g></g></g><g
     id="g2"
     transform="matrix(1.000025,0,0,1.000025,-0.00375385,14.265635)">
	<g
   id="XMLID_1_">
		<rect
   id="XMLID_2_"
   x="31.389999"
   y="22.73"
   class="st0"
   width="3.9200001"
   height="18.65"
   style="fill:#f37c20" />
		<rect
   id="XMLID_3_"
   x="10.24"
   y="22.73"
   class="st0"
   width="3.79"
   height="18.65"
   style="fill:#f37c20" />
		<rect
   id="XMLID_4_"
   x="15.34"
   y="22.73"
   class="st0"
   width="4.04"
   height="18.65"
   style="fill:#f37c20" />
		<rect
   id="XMLID_5_"
   x="20.690001"
   y="22.73"
   class="st0"
   width="4.04"
   height="18.65"
   style="fill:#f37c20" />
		<rect
   id="XMLID_6_"
   x="26.040001"
   y="22.73"
   class="st0"
   width="4.04"
   height="18.65"
   style="fill:#f37c20" />
		<polygon
   id="XMLID_7_"
   class="st0"
   points="23.02,14.54 33.62,21.42 11.84,21.42 "
   style="fill:#f37c20" />
		<polygon
   id="XMLID_8_"
   class="st0"
   points="0,14.47 20.63,14.47 9.33,21.42 0,21.42 "
   style="fill:#f37c20" />
		<polygon
   id="XMLID_9_"
   class="st0"
   points="45.43,21.42 36.04,21.42 25.33,14.47 45.43,14.47 "
   style="fill:#f37c20" />
		<path
   id="XMLID_10_"
   class="st0"
   d="M 42.55,13.15 H 2.88 C 6.76,6.14 14.19,1.4 22.71,1.4 c 8.53,0 15.95,4.74 19.84,11.75 z"
   style="fill:#f37c20" />
		<path
   id="XMLID_11_"
   class="st1"
   d="M 3.06,36.07 2.72,37.11 3.61,36.46 4.5,37.11 4.16,36.07 5.05,35.42 H 3.95 L 3.6,34.38 3.26,35.42 H 2.16 Z M 0,30.14 0.89,30.79 0.55,31.83 1.44,31.18 2.33,31.83 1.99,30.79 2.88,30.14 H 1.78 L 1.44,29.1 1.1,30.14 Z M 8.94,41.38 H 7.74 L 7.4,40.35 8.29,39.7 H 7.19 L 6.85,38.66 6.51,39.7 H 5.41 L 6.3,40.35 5.96,41.39 H 0 V 30.14 26.09 L 0.83,25.48 1.72,26.13 1.38,25.09 2.27,24.44 H 1.17 L 0.83,23.4 0.68,23.88 0.47,24.45 H 0 v -1.7 h 8.94 z m -1.21,0 H 5.97 L 6.85,40.74 Z M 0,25.95 v -1.08 l 0.26,0.19 -0.19,0.58 z"
   style="clip-rule:evenodd;fill:#f37c20;fill-rule:evenodd" />
		<rect
   id="XMLID_17_"
   y="42.700001"
   class="st1"
   width="8.9399996"
   height="4.9499998"
   x="0"
   style="clip-rule:evenodd;fill:#f37c20;fill-rule:evenodd" />
		<rect
   id="XMLID_18_"
   x="36.610001"
   y="42.700001"
   class="st1"
   width="8.8100004"
   height="4.9499998"
   style="clip-rule:evenodd;fill:#f37c20;fill-rule:evenodd" />
		<path
   id="XMLID_19_"
   class="st1"
   d="m 28.84,46.2 0.89,-0.65 h -1.1 l -0.34,-1.04 -0.34,1.04 h -1.1 l 0.89,0.65 -0.34,1.04 0.89,-0.65 0.89,0.65 z m -6.64,0.69 -0.25,0.76 H 10.24 V 42.7 h 1.44 l -0.25,0.77 h -1.1 l 0.89,0.65 -0.34,1.04 0.89,-0.65 0.89,0.65 -0.34,-1.04 0.89,-0.65 h -1.1 L 11.86,42.7 h 21.76 l -0.25,0.77 h -1.1 l 0.89,0.65 -0.34,1.04 0.89,-0.65 0.89,0.65 -0.34,-1.04 0.89,-0.65 h -1.1 L 33.8,42.7 h 1.51 v 4.95 H 23.55 l -0.25,-0.76 0.89,-0.65 h -1.1 l -0.34,-1.04 -0.34,1.04 h -1.1 z m -5.71,-0.69 -0.34,1.04 0.89,-0.65 0.89,0.65 -0.34,-1.04 0.89,-0.65 h -1.1 l -0.34,-1.04 -0.34,1.04 h -1.1 z m 6.76,1.45 h -1.01 l 0.5,-0.36 z"
   style="clip-rule:evenodd;fill:#f37c20;fill-rule:evenodd" />
		<path
   id="XMLID_24_"
   class="st1"
   d="m 42.43,36.07 0.89,-0.65 h -1.1 l -0.34,-1.04 -0.34,1.04 h -1.1 l 0.89,0.65 -0.34,1.04 0.89,-0.65 0.89,0.65 z m -2.91,5.31 -0.34,-1.04 0.89,-0.65 h -1.1 L 38.63,38.65 38.3,39.7 h -1.1 l 0.89,0.65 -0.34,1.04 0.89,-0.64 z m 5.91,0 h -5.9 -1.76 -1.14 V 22.73 h 8.81 v 1.7 h -0.43 l -0.34,-1.04 -0.34,1.04 h -1.1 l 0.89,0.65 -0.34,1.04 0.89,-0.65 0.77,0.56 v 4.1 h -1.03 l -0.34,-1.04 -0.34,1.04 h -1.1 l 0.89,0.65 -0.34,1.04 0.89,-0.65 0.89,0.65 -0.34,-1.04 0.83,-0.6 v 11.2 z m 0,-16.46 v 0.86 L 45.2,25.09 Z"
   style="clip-rule:evenodd;fill:#f37c20;fill-rule:evenodd" />
	</g>
	<g
   id="g1">
		<path
   id="XMLID_132_"
   class="st2"
   d="m 63.43,26.7 c 3.2,0 5.44,-0.85 6.92,-2.21 2.06,-1.77 2.87,-4.08 3.09,-7.1 0.11,-1.43 0.18,-7.87 0.18,-8.39 0,-0.51 0,-5.74 0.07,-6.11 0.11,-0.44 0.22,-1.47 1.58,-1.47 h 1.51 C 76.96,1.42 77,1.27 77,1.05 V 0.26 C 77,0.15 76.96,0 76.63,0 76.3,0 75.12,0.11 72.58,0.11 70.12,0.11 68.43,0 68.06,0 67.84,0 67.8,0.07 67.8,0.26 v 0.88 c 0,0.18 0.04,0.29 0.26,0.29 h 1.62 c 0.96,0 1.54,0.66 1.66,1.62 0.11,0.92 0.18,3.05 0.18,5.85 v 7.87 c 0,2.72 -0.48,4.93 -1.91,6.47 -1.29,1.32 -3.42,2.02 -5.52,2.02 -2.13,0 -4.49,-0.66 -5.85,-2.65 -0.85,-1.25 -1.14,-2.98 -1.18,-4.67 -0.04,-1.18 -0.18,-5.85 -0.18,-7.8 V 7.72 c 0,-1.88 0.04,-4.45 0.07,-4.78 0.07,-0.81 0.7,-1.51 1.77,-1.51 h 1.84 c 0.26,0 0.29,-0.07 0.29,-0.26 V 0.22 C 60.85,0.07 60.81,0 60.52,0 60.12,0 58.35,0.11 55.48,0.11 52.61,0.11 50.81,0 50.44,0 50.15,0 50.11,0.07 50.11,0.29 V 1.1 c 0,0.26 0.04,0.33 0.26,0.33 h 1.73 c 1.14,0 1.4,0.59 1.4,1.88 v 8.75 c 0,4.82 0.15,7.28 0.59,8.94 0.59,2.32 1.88,3.94 4.38,4.93 1.21,0.52 3.04,0.77 4.96,0.77 z"
   style="clip-rule:evenodd;fill:#232d4b;fill-rule:evenodd" />
		<path
   id="XMLID_131_"
   class="st2"
   d="m 93.63,14.02 c 0,-1.64 -0.08,-4.16 0.12,-5.99 0.08,-0.56 0.28,-0.84 1.28,-0.84 h 0.4 c 0.16,0 0.24,-0.12 0.24,-0.28 V 6.07 c 0,-0.24 -0.08,-0.32 -0.28,-0.32 -0.28,0 -1.68,0.12 -2.52,0.12 -1.28,0 -3,-0.12 -3.28,-0.12 -0.2,0 -0.28,0.08 -0.28,0.2 v 0.96 c 0,0.2 0.08,0.28 0.28,0.28 h 0.68 c 0.68,0 1.28,0.24 1.48,0.72 0.2,0.48 0.32,2.8 0.32,3.76 0.08,1.28 0.12,2.52 0.12,4.8 v 2.64 h -0.16 c -0.48,-0.52 -4.2,-5.2 -4.92,-6.03 -0.84,-1 -5.44,-6.79 -5.55,-6.95 -0.16,-0.24 -0.4,-0.32 -0.96,-0.32 -0.48,0 -1.32,0.08 -1.96,0.08 -0.44,0 -1.08,-0.04 -1.6,-0.08 -0.52,0 -0.96,-0.04 -1.04,-0.04 -0.16,0 -0.24,0.12 -0.24,0.24 v 0.96 c 0,0.16 0.08,0.24 0.24,0.24 h 0.36 c 1.12,0 2.12,0.68 2.12,2.12 v 4.2 c 0,4.52 -0.08,7.35 -0.12,7.83 -0.12,0.92 -0.76,1.2 -1.16,1.2 h -0.92 c -0.12,0 -0.16,0.04 -0.16,0.12 v 1.04 c 0,0.2 0.04,0.28 0.12,0.28 0.32,0 2.12,-0.12 2.68,-0.12 1.16,0 2.76,0.12 3.04,0.12 0.2,0 0.2,-0.08 0.2,-0.24 V 22.8 c 0,-0.16 0,-0.24 -0.2,-0.24 h -0.84 c -0.4,0 -0.84,-0.44 -0.96,-1.36 -0.08,-0.36 -0.24,-4.36 -0.24,-6.75 V 8.95 H 80 c 0.64,0.72 3.88,5.04 4.84,6.15 0.44,0.52 2.16,2.56 4,4.76 1.64,1.96 3,3.6 3.28,3.88 0.16,0.12 0.56,0.4 0.92,0.4 0.48,0 0.6,-0.4 0.6,-0.76 v -9.36 z"
   style="clip-rule:evenodd;fill:#232d4b;fill-rule:evenodd" />
		<path
   id="XMLID_130_"
   class="st2"
   d="m 103.12,13.62 c 0,-0.28 0.04,-5.04 0.04,-5.44 0.04,-0.84 0.4,-1 1.48,-1 h 0.68 c 0.2,0 0.24,-0.12 0.24,-0.28 V 5.95 c 0,-0.12 -0.08,-0.2 -0.24,-0.2 -0.32,0 -2.36,0.12 -3.52,0.12 -1.88,0.04 -4.36,-0.12 -4.6,-0.12 -0.16,0 -0.24,0.08 -0.24,0.24 v 0.92 c 0,0.16 0.04,0.28 0.24,0.28 h 0.72 c 1.68,0 2.04,0.4 2.04,0.84 0,0.56 0.08,4.56 0.08,5.2 v 1.76 c 0,1.36 -0.04,6.43 -0.08,6.79 -0.08,0.72 -0.72,0.76 -1.72,0.76 h -0.88 c -0.16,0 -0.24,0.12 -0.24,0.24 v 0.88 c 0,0.2 0.08,0.32 0.24,0.32 0.24,0 2.56,-0.12 3.92,-0.12 1.8,0 3.88,0.12 4.2,0.12 0.2,0 0.24,-0.12 0.24,-0.28 v -0.96 c 0,-0.12 -0.04,-0.2 -0.24,-0.2 h -0.6 c -1.16,0 -1.64,-0.56 -1.72,-1.48 -0.04,-0.6 -0.04,-5.2 -0.04,-5.44 z"
   style="clip-rule:evenodd;fill:#232d4b;fill-rule:evenodd" />
		<path
   id="XMLID_127_"
   class="st2"
   d="m 143.63,14.74 c -0.04,2.44 0,4.8 -0.04,6.75 0,0.88 -0.48,1.04 -1.44,1.04 h -0.48 c -0.16,0 -0.24,0.08 -0.24,0.2 v 0.92 c 0,0.2 0.08,0.32 0.24,0.32 0.28,0 2.32,-0.12 3.32,-0.12 1.32,0 3.48,0.12 3.76,0.12 0.24,0 0.32,-0.08 0.32,-0.28 v -0.96 c 0,-0.12 -0.08,-0.2 -0.24,-0.2 h -1.04 c -0.8,0 -1.04,-0.44 -1.12,-1 v -4.32 -0.96 c 0.28,-0.08 0.64,-0.08 1.04,-0.08 1.68,0 2.28,0.88 3.72,3.36 0.36,0.6 2.12,3.84 2.88,4.4 0.68,-0.04 1.64,-0.08 2.56,-0.08 0.4,0 0.88,0.04 1.24,0.04 0.4,0.04 0.72,0.08 0.8,0.08 0.16,0 0.24,-0.12 0.24,-0.28 v -0.8 c 0,-0.24 -0.04,-0.36 -0.2,-0.36 -0.72,0 -1.24,-0.04 -1.8,-0.44 -0.76,-0.56 -1.68,-1.76 -2.24,-2.56 -1.64,-2.32 -2.44,-3.56 -3.36,-3.76 V 15.7 c 3.16,-1.12 4.72,-2.72 4.72,-5.48 0,-0.92 -0.52,-2.08 -1.4,-2.92 -1,-0.88 -2.8,-1.56 -5.2,-1.56 -0.52,0 -4,0.12 -4.48,0.12 -0.72,0 -3.2,-0.12 -3.4,-0.12 -0.16,0 -0.24,0.08 -0.24,0.2 V 6.9 c 0,0.16 0.04,0.28 0.16,0.28 h 0.4 c 1.12,0 1.48,0.44 1.52,1.24 v 3.84 z m 3.04,-6.83 c 0,-0.72 0.6,-0.88 1.2,-0.88 1.6,0 2.72,0.36 3.8,1.04 0.72,0.48 1.32,1.56 1.32,2.76 0,1.04 -0.68,4.16 -5.12,4.16 -0.52,0 -0.92,-0.04 -1.2,-0.08 z"
   style="clip-rule:evenodd;fill:#232d4b;fill-rule:evenodd" />
		<path
   id="XMLID_126_"
   class="st2"
   d="m 165.91,24.33 c 3.64,0 5.55,-2.56 5.55,-5.55 0,-2 -0.48,-3 -1.28,-3.84 -1,-1.04 -2.48,-1.48 -4.32,-2.16 -0.76,-0.28 -2.2,-0.88 -2.8,-1.64 -0.44,-0.52 -0.64,-1.36 -0.64,-1.96 0,-0.72 0.64,-2.44 2.84,-2.44 1.16,0 2.04,0.4 2.64,1.08 0.84,0.96 1.16,2.36 1.4,2.84 0.04,0.12 0.12,0.2 0.24,0.16 l 0.72,-0.16 c 0.12,-0.04 0.16,-0.12 0.16,-0.24 -0.04,-0.56 -0.4,-3.16 -0.4,-4.48 0,-0.2 -0.04,-0.36 -0.36,-0.36 -0.32,0 -0.44,0 -0.52,0.12 l -0.16,0.28 c -0.08,0.2 -0.28,0.16 -0.68,-0.08 -0.48,-0.24 -1.32,-0.52 -2.84,-0.52 -1.44,0 -2.72,0.36 -3.76,1.2 -0.88,0.76 -1.72,2 -1.72,3.36 0,1.96 0.48,3.24 1.4,4.12 1.2,1.08 3.12,1.8 3.92,2.08 2.12,0.8 3.68,1.8 3.68,4.08 0,1.72 -1.92,2.72 -3.2,2.72 -1.48,0 -2.8,-0.8 -3.4,-2 -0.72,-1.32 -0.72,-2.16 -0.72,-2.72 0,-0.16 -0.16,-0.24 -0.32,-0.28 l -0.72,-0.08 c -0.16,0 -0.24,0.12 -0.28,0.28 -0.04,0.64 -0.32,3.84 -0.44,4.96 -0.04,0.2 0.08,0.36 0.32,0.44 0.32,0.08 0.52,0 0.6,-0.2 l 0.12,-0.32 c 0.08,-0.32 0.32,-0.28 0.6,-0.08 0.93,0.71 2.33,1.39 4.37,1.39 z"
   style="clip-rule:evenodd;fill:#232d4b;fill-rule:evenodd" />
		<path
   id="XMLID_125_"
   class="st2"
   d="m 178.23,13.62 c 0,-0.28 0.04,-5.04 0.04,-5.44 0.04,-0.84 0.4,-1 1.48,-1 h 0.68 c 0.2,0 0.24,-0.12 0.24,-0.28 V 5.95 c 0,-0.12 -0.08,-0.2 -0.24,-0.2 -0.32,0 -2.36,0.12 -3.52,0.12 -1.88,0.04 -4.36,-0.12 -4.6,-0.12 -0.16,0 -0.24,0.08 -0.24,0.24 v 0.92 c 0,0.16 0.04,0.28 0.24,0.28 h 0.72 c 1.68,0 2.04,0.4 2.04,0.84 0,0.56 0.08,4.56 0.08,5.2 v 1.76 c 0,1.36 -0.04,6.43 -0.08,6.79 -0.08,0.72 -0.72,0.76 -1.72,0.76 h -0.88 c -0.16,0 -0.24,0.12 -0.24,0.24 v 0.88 c 0,0.2 0.08,0.32 0.24,0.32 0.24,0 2.56,-0.12 3.92,-0.12 1.8,0 3.88,0.12 4.2,0.12 0.2,0 0.24,-0.12 0.24,-0.28 v -0.96 c 0,-0.12 -0.04,-0.2 -0.24,-0.2 h -0.6 c -1.16,0 -1.64,-0.56 -1.72,-1.48 -0.04,-0.6 -0.04,-5.2 -0.04,-5.44 z"
   style="clip-rule:evenodd;fill:#232d4b;fill-rule:evenodd" />
		<path
   id="XMLID_122_"
   class="st2"
   d="m 71.08,36.66 c 3.67,0 5.87,-5.03 5.87,-7.81 0,-1.72 -1.01,-2.96 -2.71,-2.96 -3.36,0 -5.77,4.32 -5.77,7.51 0.01,1.92 1.22,3.26 2.61,3.26 z M 70.7,35.45 c -0.61,0 -1.16,-0.48 -1.16,-1.29 0,-1.19 0.61,-2.73 1.47,-4.1 1.26,-2.05 2.6,-3.01 3.67,-3.01 0.83,0 1.29,0.63 1.26,1.42 0,1.67 -2.61,6.98 -5.24,6.98 z"
   style="clip-rule:evenodd;fill:#232d4b;fill-rule:evenodd" />
		<path
   id="XMLID_121_"
   class="st2"
   d="m 112.74,37.3 c 0,-0.28 0.04,-5.04 0.04,-5.44 0.04,-0.84 0.4,-1 1.48,-1 h 0.68 c 0.2,0 0.24,-0.12 0.24,-0.28 v -0.96 c 0,-0.12 -0.08,-0.2 -0.24,-0.2 -0.32,0 -2.36,0.12 -3.52,0.12 -1.88,0.04 -4.36,-0.12 -4.6,-0.12 -0.16,0 -0.24,0.08 -0.24,0.24 v 0.92 c 0,0.16 0.04,0.28 0.24,0.28 h 0.72 c 1.68,0 2.04,0.4 2.04,0.84 0,0.56 0.08,4.56 0.08,5.2 v 1.76 c 0,1.36 -0.04,6.43 -0.08,6.79 -0.08,0.72 -0.72,0.76 -1.72,0.76 h -0.88 c -0.16,0 -0.24,0.12 -0.24,0.24 v 0.88 c 0,0.2 0.08,0.32 0.24,0.32 0.24,0 2.56,-0.12 3.92,-0.12 1.8,0 3.88,0.12 4.2,0.12 0.2,0 0.24,-0.12 0.24,-0.28 v -0.96 c 0,-0.12 -0.04,-0.2 -0.24,-0.2 h -0.6 c -1.16,0 -1.64,-0.56 -1.72,-1.48 -0.04,-0.6 -0.04,-5.2 -0.04,-5.43 z"
   style="clip-rule:evenodd;fill:#232d4b;fill-rule:evenodd" />
		<path
   id="XMLID_115_"
   class="st2"
   d="m 118.55,38.42 c -0.04,2.44 0,4.8 -0.04,6.75 0,0.88 -0.48,1.04 -1.44,1.04 h -0.48 c -0.16,0 -0.24,0.08 -0.24,0.2 v 0.92 c 0,0.2 0.08,0.32 0.24,0.32 0.28,0 2.32,-0.12 3.32,-0.12 1.32,0 3.48,0.12 3.76,0.12 0.24,0 0.32,-0.08 0.32,-0.28 v -0.96 c 0,-0.12 -0.08,-0.2 -0.24,-0.2 h -1.04 c -0.8,0 -1.04,-0.44 -1.12,-1 V 40.9 39.94 c 0.28,-0.08 0.64,-0.08 1.04,-0.08 1.68,0 2.28,0.88 3.72,3.36 0.36,0.6 2.12,3.84 2.88,4.4 0.68,-0.04 1.64,-0.08 2.56,-0.08 0.4,0 0.88,0.04 1.24,0.04 0.4,0.04 0.72,0.08 0.8,0.08 0.16,0 0.24,-0.12 0.24,-0.28 v -0.8 c 0,-0.24 -0.04,-0.36 -0.2,-0.36 -0.72,0 -1.24,-0.04 -1.8,-0.44 -0.76,-0.56 -1.68,-1.76 -2.24,-2.56 -1.64,-2.32 -2.44,-3.56 -3.36,-3.76 v -0.08 c 3.16,-1.12 4.72,-2.72 4.72,-5.47 0,-0.92 -0.52,-2.08 -1.4,-2.92 -1,-0.88 -2.8,-1.56 -5.2,-1.56 -0.52,0 -4,0.12 -4.48,0.12 -0.72,0 -3.2,-0.12 -3.4,-0.12 -0.16,0 -0.24,0.08 -0.24,0.2 v 0.96 c 0,0.16 0.04,0.28 0.16,0.28 h 0.4 c 1.12,0 1.48,0.44 1.52,1.24 v 3.84 z m 3.27,-6.83 c 0,-0.72 0.6,-0.88 1.2,-0.88 1.6,0 2.72,0.36 3.8,1.04 0.72,0.48 1.32,1.56 1.32,2.76 0,1.04 -0.68,4.16 -5.12,4.16 -0.52,0 -0.92,-0.04 -1.2,-0.08 z"
   style="clip-rule:evenodd;fill:#232d4b;fill-rule:evenodd" />
		<path
   id="XMLID_114_"
   class="st2"
   d="m 149.02,42.1 c 0,-0.68 0.76,-0.84 1.16,-0.84 h 0.68 c 0.12,0 0.2,-0.12 0.2,-0.24 v -0.96 c 0,-0.12 -0.08,-0.2 -0.24,-0.2 -0.16,0 -1.96,0.08 -3.44,0.08 -2.16,0 -4.12,-0.08 -4.36,-0.08 -0.16,0 -0.2,0.08 -0.2,0.2 v 0.96 c 0,0.12 0.04,0.2 0.2,0.2 h 0.96 c 1.04,0 1.96,0.28 1.96,1.2 v 1.48 c 0,0.8 -0.08,1.32 -0.6,1.72 -0.64,0.52 -1.92,0.88 -3.32,0.88 -1.12,0 -2.72,-0.6 -3.84,-1.8 -1.56,-1.64 -2.44,-3.92 -2.44,-6.99 0,-1.8 0.88,-3.92 2.08,-5.24 1.48,-1.6 3.04,-2.04 4.28,-2.04 1.84,0 2.96,0.8 4.04,1.92 0.96,0.96 1.64,2.2 1.92,2.84 0.12,0.32 0.2,0.36 0.32,0.32 l 0.76,-0.24 c 0.12,-0.04 0.16,-0.12 0.16,-0.32 -0.08,-0.72 -0.6,-4.44 -0.6,-4.64 0,-0.28 -0.08,-0.44 -0.44,-0.44 -0.32,0 -0.44,0.12 -0.52,0.28 l -0.2,0.36 c -0.08,0.12 -0.24,0.12 -0.56,-0.16 -0.76,-0.56 -2.64,-1.28 -4.56,-1.28 -2.84,0 -5.28,0.84 -7.15,2.44 -1.92,1.68 -2.96,4.12 -2.96,6.55 0,3.12 0.8,5.28 2.4,7.03 1.88,2.08 5.08,2.92 7.15,2.92 2.56,0 4.72,-0.56 6.83,-1.6 0.28,-0.12 0.44,-0.24 0.44,-0.44 0,-0.2 -0.12,-0.44 -0.12,-0.8 V 42.1 Z"
   style="clip-rule:evenodd;fill:#232d4b;fill-rule:evenodd" />
		<path
   id="XMLID_113_"
   class="st2"
   d="m 156.35,37.3 c 0,-0.28 0.04,-5.04 0.04,-5.44 0.04,-0.84 0.4,-1 1.48,-1 h 0.68 c 0.2,0 0.24,-0.12 0.24,-0.28 v -0.96 c 0,-0.12 -0.08,-0.2 -0.24,-0.2 -0.32,0 -2.36,0.12 -3.52,0.12 -1.88,0.04 -4.36,-0.12 -4.6,-0.12 -0.16,0 -0.24,0.08 -0.24,0.24 v 0.92 c 0,0.16 0.04,0.28 0.24,0.28 h 0.72 c 1.68,0 2.04,0.4 2.04,0.84 0,0.56 0.08,4.56 0.08,5.2 v 1.76 c 0,1.36 -0.04,6.43 -0.08,6.79 -0.08,0.72 -0.72,0.76 -1.72,0.76 h -0.88 c -0.16,0 -0.24,0.12 -0.24,0.24 v 0.88 c 0,0.2 0.08,0.32 0.24,0.32 0.24,0 2.56,-0.12 3.92,-0.12 1.8,0 3.88,0.12 4.2,0.12 0.2,0 0.24,-0.12 0.24,-0.28 v -0.96 c 0,-0.12 -0.04,-0.2 -0.24,-0.2 h -0.6 c -1.16,0 -1.64,-0.56 -1.72,-1.48 -0.04,-0.6 -0.04,-5.2 -0.04,-5.43 z"
   style="clip-rule:evenodd;fill:#232d4b;fill-rule:evenodd" />
		<path
   id="XMLID_112_"
   class="st2"
   d="m 177.95,37.7 c 0,-1.64 -0.08,-4.16 0.12,-5.99 0.08,-0.56 0.28,-0.84 1.28,-0.84 h 0.4 c 0.16,0 0.24,-0.12 0.24,-0.28 v -0.84 c 0,-0.24 -0.08,-0.32 -0.28,-0.32 -0.28,0 -1.68,0.12 -2.52,0.12 -1.28,0 -3,-0.12 -3.28,-0.12 -0.2,0 -0.28,0.08 -0.28,0.2 v 0.96 c 0,0.2 0.08,0.28 0.28,0.28 h 0.68 c 0.68,0 1.28,0.24 1.48,0.72 0.2,0.48 0.32,2.8 0.32,3.76 0.08,1.28 0.12,2.52 0.12,4.8 v 2.64 h -0.16 c -0.48,-0.52 -4.2,-5.2 -4.92,-6.03 -0.84,-1 -5.44,-6.79 -5.55,-6.95 -0.16,-0.24 -0.4,-0.32 -0.96,-0.32 -0.48,0 -1.32,0.08 -1.96,0.08 -0.44,0 -1.08,-0.04 -1.6,-0.08 -0.52,0 -0.96,-0.04 -1.04,-0.04 -0.16,0 -0.24,0.12 -0.24,0.24 v 0.96 c 0,0.16 0.08,0.24 0.24,0.24 h 0.36 c 1.12,0 2.12,0.68 2.12,2.12 v 4.2 c 0,4.52 -0.08,7.35 -0.12,7.83 -0.12,0.92 -0.76,1.2 -1.16,1.2 h -0.92 c -0.12,0 -0.16,0.04 -0.16,0.12 v 1.04 c 0,0.2 0.04,0.28 0.12,0.28 0.32,0 2.12,-0.12 2.68,-0.12 1.16,0 2.76,0.12 3.04,0.12 0.2,0 0.2,-0.08 0.2,-0.24 v -0.96 c 0,-0.16 0,-0.24 -0.2,-0.24 h -0.84 c -0.4,0 -0.84,-0.44 -0.96,-1.36 -0.08,-0.36 -0.24,-4.36 -0.24,-6.75 v -5.48 h 0.08 c 0.64,0.72 3.88,5.04 4.84,6.15 0.44,0.52 2.16,2.56 4,4.76 1.64,1.96 3,3.6 3.28,3.88 0.16,0.12 0.56,0.4 0.92,0.4 0.48,0 0.6,-0.4 0.6,-0.76 V 37.7 Z"
   style="clip-rule:evenodd;fill:#232d4b;fill-rule:evenodd" />
		<path
   id="XMLID_111_"
   class="st3"
   d="m 79.77,27.25 h -2.25 c -0.13,0 -0.19,-0.12 -0.14,-0.3 l 0.1,-0.43 c 0.05,-0.18 0.23,-0.58 0.43,-0.58 h 2.2 c 0.76,-2.18 1.49,-3.94 2.83,-5.44 0.71,-0.81 2.1,-1.72 3.74,-1.72 1.47,0 2.28,0.89 2.28,1.49 0,0.78 -0.51,1.16 -1.01,1.16 -0.81,0 -1.04,-0.46 -1.11,-1.01 -0.03,-0.25 -0.28,-0.73 -1.04,-0.73 -2.35,0 -2.86,3.34 -3.69,6.17 0,0 3.51,0.09 6.38,0.09 3.09,0 4.74,-0.11 5.08,-0.11 0.33,0 0.37,0.11 0.37,0.26 v 0.85 c 0,0.18 -0.04,0.33 -0.29,0.33 h -1.77 c -1.03,0 -1.54,0.33 -1.54,0.96 0,0.29 0.04,0.74 0.15,1.25 0.22,1.32 1.58,5.7 2.24,7.76 0.44,1.4 2.57,7.72 3.42,9.97 0.85,-1.73 3.71,-9.31 4.01,-10.15 0.37,-0.99 1.77,-5.22 2.32,-6.84 0.29,-0.92 0.51,-1.58 0.51,-2.1 0,-0.44 -0.26,-0.85 -1.18,-0.85 h -0.96 c -0.15,0 -0.18,-0.11 -0.18,-0.33 V 26.1 c 0,-0.18 0.04,-0.26 0.22,-0.26 0.33,0 2.02,0.11 4.34,0.11 2.69,0 3.6,-0.11 3.94,-0.11 0.22,0 0.26,0.07 0.26,0.26 v 0.92 c 0,0.15 -0.04,0.26 -0.26,0.26 h -0.99 c -1.21,0 -1.91,0.59 -2.61,1.43 -0.96,1.18 -3.9,8.72 -4.52,10.26 -0.44,1.21 -5.19,12.91 -5.37,13.28 -0.15,0.29 -0.33,0.48 -0.51,0.48 -0.29,0 -0.44,-0.37 -0.63,-0.85 C 93.36,48.5 90.38,40.11 89.91,38.79 l -0.37,-1.25 c -0.88,-2.61 -2.61,-7.95 -3.09,-9.05 -0.37,-0.85 -0.74,-1.21 -1.51,-1.21 l -3.42,-0.03 c -0.66,2.05 -1.82,6.38 -3.09,9.61 -1.54,3.95 -3.34,6.75 -6.04,6.75 -1.01,0 -1.82,-0.68 -1.82,-1.49 0,-0.58 0.43,-1.09 1.09,-1.09 0.73,0 1.11,0.71 1.19,1.14 0.05,0.25 0.23,0.43 0.43,0.43 1.21,0 2.58,-2.12 3.95,-6.8 z"
   style="fill:#232d4b" />
		<path
   id="XMLID_110_"
   class="st3"
   d="m 182.64,5.69 c 0.05,-0.04 0.03,-0.04 0.16,-0.02 0.62,0.07 2.89,0.28 7.28,0.28 h 1.6 c 1.31,0 2.71,-0.05 4.24,-0.12 0.77,-0.02 5.46,0.04 6.42,0.04 0.88,0 3.6,-0.12 3.88,-0.12 0.16,0 0.28,0.08 0.28,0.28 v 0.88 c 0,0.16 -0.04,0.28 -0.28,0.28 h -0.6 c -0.72,0 -0.76,0.44 -0.6,0.68 0.24,0.36 3.56,5.67 4.2,6.63 0.6,-1 3.92,-5.83 4.08,-6.15 0.32,-0.64 0.36,-1.16 -0.52,-1.16 h -0.64 c -0.2,0 -0.28,-0.12 -0.28,-0.28 V 6.03 c 0,-0.16 0.08,-0.28 0.28,-0.28 0.24,0 2.24,0.12 3.44,0.12 0.72,0 2.12,-0.12 2.36,-0.12 0.2,0 0.28,0.08 0.28,0.32 v 0.84 c 0,0.2 -0.08,0.28 -0.24,0.28 h -0.4 c -0.64,0 -1.08,0.12 -1.44,0.32 -0.6,0.32 -5.24,6.83 -6.15,8.23 v 3.36 c 0.04,1 0,2.08 0.08,2.56 0.08,0.84 0.72,0.88 1.44,0.88 H 212 c 0.2,0 0.28,0.08 0.28,0.2 v 0.96 c 0,0.16 -0.08,0.28 -0.32,0.28 -0.24,0 -2.48,-0.12 -3.8,-0.12 -0.88,0 -3.2,0.12 -3.44,0.12 -0.2,0 -0.28,-0.08 -0.28,-0.32 v -0.88 c 0,-0.12 0.08,-0.24 0.24,-0.24 h 0.6 c 1.28,0 1.52,-0.24 1.56,-0.8 0.04,-0.36 0.04,-1.8 0.04,-4.16 v -1.44 c -0.36,-0.72 -5.24,-7.87 -5.87,-8.47 -0.34,-0.34 -0.91,-0.45 -1.27,-0.47 0.24,1.08 0.56,2.5 0.69,3.19 0.04,0.16 -0.04,0.24 -0.2,0.32 l -0.68,0.2 c -0.24,0.08 -0.36,0.04 -0.44,-0.16 -0.48,-1 -1.16,-2.32 -2,-3.08 -1,-0.36 -3.92,-0.4 -4.64,-0.4 v 6.71 c 0,4.2 0,7.19 0.04,7.51 0.08,0.64 0.28,1.04 0.92,1.04 h 1.52 c 0.2,0 0.28,0.12 0.28,0.36 v 0.84 c 0,0.12 -0.08,0.24 -0.28,0.24 -0.28,0 -2.76,-0.12 -4.08,-0.12 -1.12,0 -3.72,0.12 -4.04,0.12 -0.24,0 -0.32,-0.12 -0.32,-0.36 v -0.8 c 0,-0.2 0.08,-0.28 0.24,-0.28 h 1.6 c 0.6,0 0.88,-0.32 0.92,-0.64 0.12,-1.52 0.12,-3.64 0.12,-6.03 V 7.27 c -0.76,0 -3,-0.04 -4.48,0.36 -1,0.76 -1.84,2.04 -2.36,3.08 -0.08,0.16 -0.2,0.28 -0.36,0.2 l -0.72,-0.28 c -0.2,-0.08 -0.2,-0.24 -0.16,-0.4 0.23,-0.73 0.93,-3.19 1.25,-4.4 0.02,-0.07 0.03,-0.11 0.08,-0.14 z"
   style="fill:#232d4b" />
		<path
   id="XMLID_107_"
   class="st3"
   d="m 195.73,39.34 h 5.44 c -0.16,-0.56 -2.04,-6.55 -2.12,-6.87 -0.08,-0.24 -0.12,-0.4 -0.24,-0.4 -0.12,0 -0.2,0.12 -0.32,0.44 -0.12,0.32 -2.56,6.43 -2.76,6.83 z m -8.29,-2.04 v 2 c 0,0.24 0,4.84 0.04,5.43 0.08,0.92 0.56,1.48 1.72,1.48 h 0.46 c 0.68,0 1.32,-0.4 1.64,-0.84 0.28,-0.32 2.32,-5.12 3.28,-7.11 0.28,-0.56 2.64,-5.99 2.88,-6.67 0.08,-0.24 0.32,-0.68 0.04,-0.8 -0.08,-0.08 -0.2,-0.28 -0.16,-0.4 -0.04,-0.08 0.04,-0.2 0.4,-0.28 0.76,-0.12 1.88,-0.84 2.24,-1.16 0.08,-0.16 0.24,-0.28 0.48,-0.28 0.24,0 0.32,0.16 0.4,0.44 0.56,1.6 2.6,7.31 3.12,8.91 0.6,2 2.32,6.71 2.6,7.11 0.52,0.72 1.2,1.08 1.88,1.08 h 0.76 c 0.16,0 0.2,0.12 0.2,0.24 v 0.84 c 0,0.12 -0.04,0.36 -0.28,0.36 -0.48,0 -2.6,-0.12 -3.52,-0.12 -0.76,0 -3.12,0.12 -3.64,0.12 -0.28,0 -0.32,-0.2 -0.32,-0.36 v -0.84 c 0,-0.12 0.04,-0.24 0.2,-0.24 h 0.64 c 0.48,0 0.64,-0.36 0.64,-0.68 -0.16,-0.8 -1.24,-4 -1.56,-4.92 h -6.43 c -0.16,0.48 -1.44,3.8 -1.6,4.28 -0.24,0.8 -0.12,1.32 0.72,1.32 h 1 c 0.24,0 0.28,0.12 0.28,0.28 v 0.88 c 0,0.16 -0.04,0.28 -0.24,0.28 -0.32,0 -2.44,-0.12 -3.08,-0.12 -0.5,0 -5.4,0 -6.62,0 -1.36,0 -3.68,0.12 -3.92,0.12 -0.16,0 -0.24,-0.12 -0.24,-0.32 v -0.88 c 0,-0.12 0.08,-0.24 0.24,-0.24 h 0.88 c 1,0 1.64,-0.04 1.72,-0.76 0.04,-0.36 0.08,-5.44 0.08,-6.79 V 36.9 c 0,-0.64 -0.08,-4.64 -0.08,-5.2 0,-0.44 -0.36,-0.84 -2.04,-0.84 h -0.72 c -0.2,0 -0.24,-0.12 -0.24,-0.28 v -0.92 c 0,-0.16 0.08,-0.24 0.24,-0.24 0.24,0 2.72,0.16 4.6,0.12 1.16,0 3.2,-0.12 3.52,-0.12 0.16,0 0.24,0.08 0.24,0.2 v 0.96 c 0,0.16 -0.04,0.28 -0.24,0.28 h -0.68 c -1.08,0 -1.44,0.16 -1.48,1 -0.01,0.41 -0.05,5.16 -0.05,5.44 z"
   style="fill:#232d4b" />
		<path
   id="XMLID_105_"
   class="st3"
   d="m 114.48,6.03 v 0.92 c 0,0.16 -0.12,0.24 -0.28,0.24 h -0.92 c -0.52,0 -1.12,0.08 -1.12,0.6 0,0.92 0.68,2.48 1.76,5.83 0.32,1 1.8,5.63 2.04,6.27 h 0.12 c 0.24,-0.84 2.2,-5.79 2.4,-6.39 1.52,-4.44 2.04,-5.51 2.04,-5.91 0,-0.2 -0.16,-0.4 -0.84,-0.4 h -0.44 C 119.08,7.19 119,7.11 119,6.91 V 5.99 c 0,-0.12 0.08,-0.24 0.24,-0.24 0.24,0 2.32,0.12 3.24,0.12 0.67,0 5.53,0 6.11,0 l 8.95,-0.04 c 0.4,0 0.92,-0.08 1.08,-0.08 0.08,0 0.16,0.08 0.24,0.56 0.08,0.36 1.2,3.8 1.28,4.08 0.04,0.16 0.04,0.24 -0.04,0.28 l -0.64,0.28 c -0.08,0.04 -0.24,0.04 -0.36,-0.16 -0.08,-0.12 -2,-2.36 -2.68,-3 -0.48,-0.44 -1.12,-0.6 -1.52,-0.6 l -4.24,-0.08 v 6.79 c 0.24,0 2.6,-0.12 2.92,-0.2 1.04,-0.28 1.44,-0.84 1.44,-2.08 0,-0.16 0.04,-0.2 0.2,-0.2 l 0.88,0.04 c 0.16,0 0.28,0.08 0.24,0.24 -0.08,0.36 -0.08,2.48 -0.08,2.84 0,0.88 0.12,2.12 0.16,2.64 0,0.16 -0.08,0.2 -0.2,0.2 l -0.84,0.08 c -0.12,0 -0.2,0 -0.24,-0.16 -0.2,-1 -0.44,-1.64 -1.48,-1.88 -1.2,-0.28 -2.6,-0.28 -3,-0.28 v 1.36 c 0,1.4 0.08,3.72 0.08,4.24 0,1.88 1.16,2 2.88,2 1.76,0 2.88,-0.04 4.24,-1.12 0.32,-0.24 1.72,-2.04 2.12,-2.68 0.2,-0.28 0.4,-0.32 0.52,-0.24 l 0.64,0.36 c 0.08,0.04 0.16,0.16 0.12,0.28 l -1.44,4.24 c -0.08,0.2 -0.28,0.4 -0.44,0.4 -0.28,0 -2.4,-0.12 -10.79,-0.12 -0.72,0 -2.92,0.12 -3.4,0.12 -0.2,0 -0.24,-0.12 -0.24,-0.28 v -0.92 c 0,-0.16 0.08,-0.24 0.28,-0.24 h 0.36 c 1.88,0 2,-0.16 2,-0.72 V 15.79 13.3 c 0,-2.12 -0.04,-4.72 -0.08,-5.12 -0.12,-0.84 -0.36,-1 -1.96,-1 h -0.31 -0.09 -0.55 c -0.76,0 -1.32,0.24 -1.68,0.6 -0.76,0.76 -2.92,5.99 -3.32,7.03 -0.36,0.84 -3.64,8.67 -3.96,9.19 -0.12,0.2 -0.32,0.32 -0.64,0.32 -0.32,0 -0.52,-0.28 -0.64,-0.6 -0.88,-2.36 -3,-8.15 -3.32,-9.03 l -0.28,-0.88 C 110.08,11.97 108.88,8.33 108.6,7.94 108.28,7.5 107.96,7.18 107.44,7.18 h -0.4 c -0.16,0 -0.2,-0.12 -0.2,-0.24 v -1 c 0,-0.12 0.08,-0.2 0.24,-0.2 0.2,0 2.4,0.12 3.44,0.12 0.96,0 3.4,-0.12 3.64,-0.12 0.24,0.01 0.32,0.09 0.32,0.29 z"
   style="fill:#232d4b" />
	</g>
</g><g
     id="g15"
     transform="matrix(1.000025,0,0,1.000025,245.30683,17.780723)">
	<path
   class="st0"
   d="M 51.2,2 C 45.6,2 40.4,5.1 37.7,10 l -3.3,6.1 -0.4,0.8 -0.4,0.7 v 0 L 23.6,36 7.3,5.5 h 7.3 l 5.8,10.9 3.1,5.7 3.2,-5.6 6.1,-10.9 h 5.3 C 39.4,4.2 40.9,3 42.5,2 H 30.7 L 23.6,14.7 16.7,2 H 1.4 L 23.6,43.6 36,20.7 l 2.1,-3.8 0.4,-0.7 2.4,-4.4 c 0.1,-0.2 0.3,-0.5 0.4,-0.7 1.6,-2.5 4,-4.3 6.9,-5.1 0.8,-0.2 1.6,-0.4 2.4,-0.4 0.3,0 0.5,0 0.8,0 h 32.4 l -3.3,6.1 h -15 l -1,1.9 -14,26 H 43.1 L 55.3,17 58.1,11.8 H 43.5 c -0.8,1.3 -2,3.6 -2,3.6 h 10.7 l -15,27.8 H 52.6 L 67.5,15.3 h 15 L 89.6,2 Z"
   id="path1-2"
   style="fill:#861f41" />
	<g
   id="g9">
		<path
   class="st1"
   d="m 109.2,14.8 c 0,0 1.7,-3.8 2.5,-5.7 0.8,-1.9 1.7,-3.8 2.5,-5.7 0.2,-0.4 0.5,-0.8 0.9,-1 0.4,-0.3 0.8,-0.4 1.3,-0.4 h 2.1 l -8.1,18.5 h -3.1 L 99.3,2 h 2.1 c 0.2,0 0.5,0 0.7,0.1 0.2,0.1 0.4,0.2 0.6,0.3 0.2,0.1 0.4,0.3 0.5,0.5 0.2,0.2 0.3,0.4 0.4,0.6 l 5,11.4 0.3,0.7 z"
   id="path2-7"
   style="fill:#e87722" />
		<path
   class="st1"
   d="m 124.7,20.4 h -3.4 V 2 h 3.4 z"
   id="path3-6"
   style="fill:#e87722" />
		<path
   class="st1"
   d="m 162.7,10.6 v 7.7 c -0.5,0.5 -1,0.8 -1.5,1.1 -0.5,0.3 -1.1,0.5 -1.7,0.7 -0.6,0.2 -1.2,0.3 -1.8,0.4 -0.6,0.1 -1.3,0.1 -1.9,0.1 -1.3,0 -2.5,-0.2 -3.7,-0.7 -1.1,-0.5 -2.1,-1.2 -3,-2 -0.9,-0.9 -1.5,-1.8 -2,-3 -0.5,-1.1 -0.7,-2.4 -0.7,-3.7 0,-0.9 0.1,-1.7 0.3,-2.5 0.2,-0.8 0.5,-1.6 1,-2.2 0.4,-0.7 0.9,-1.3 1.5,-1.9 0.6,-0.6 1.2,-1.1 1.9,-1.5 0.7,-0.4 1.5,-0.7 2.3,-0.9 0.8,-0.2 1.6,-0.3 2.5,-0.3 0.7,0 1.4,0.1 2,0.2 0.7,0.2 1.3,0.4 1.9,0.7 0.6,0.3 1.2,0.6 1.8,1.1 0.6,0.4 1.1,0.9 1.6,1.4 l -0.8,0.8 c -0.2,0.2 -0.5,0.4 -0.8,0.6 -0.3,0.1 -0.6,0.2 -1,0.2 -0.5,0 -0.9,-0.1 -1.3,-0.4 -0.5,-0.3 -1,-0.6 -1.6,-0.8 -0.6,-0.2 -1.2,-0.3 -1.8,-0.3 -0.8,0 -1.6,0.2 -2.3,0.5 -0.7,0.3 -1.4,0.7 -1.9,1.3 -0.5,0.5 -1,1.2 -1.3,1.9 -0.3,0.7 -0.5,1.5 -0.5,2.3 0,0.9 0.2,1.6 0.5,2.4 0.3,0.7 0.8,1.4 1.4,1.9 0.6,0.5 1.2,1 2,1.3 0.8,0.3 1.5,0.5 2.4,0.5 0.4,0 0.8,0 1.2,-0.1 0.4,-0.1 0.7,-0.1 1.1,-0.2 0.4,-0.1 0.8,-0.3 1.1,-0.5 v -2.6 c -0.4,0 -0.7,0 -1.1,0 -0.3,0 -0.7,-0.1 -0.9,-0.2 -0.3,-0.1 -0.5,-0.3 -0.7,-0.7 -0.2,-0.3 -0.2,-0.8 -0.2,-1.4 v -1 h 6 z"
   id="path4-1"
   style="fill:#e87722" />
		<path
   class="st1"
   d="m 171.5,20.4 h -3.4 V 2 h 3.4 z"
   id="path5-4"
   style="fill:#e87722" />
		<path
   class="st1"
   d="m 180.5,6.6 v 13.8 h -3.4 V 2 h 3 c 0.4,0 0.8,0.1 1.1,0.2 0.3,0.1 0.6,0.3 0.7,0.6 1.3,1.8 8.2,11.6 8.2,11.6 V 2 h 3.4 v 18.5 h -3.1 z"
   id="path6-2"
   style="fill:#e87722" />
		<path
   class="st1"
   d="m 202.5,20.4 h -3.4 V 2 h 3.4 z"
   id="path7-3"
   style="fill:#e87722" />
		<path
   class="st1"
   d="m 216.4,2 h -3.1 l -8.1,18.5 h 2.1 c 0.2,0 0.5,0 0.7,-0.1 0.2,-0.1 0.4,-0.2 0.6,-0.3 0.2,-0.1 0.4,-0.3 0.5,-0.4 0.2,-0.2 0.3,-0.4 0.4,-0.6 l 1.1,-2.5 v 0 l 2,-4.5 v 0 l 2.2,-5.2 2.7,6.3 H 216 c -1.1,0 -2.2,0.7 -2.6,1.7 l -0.7,1.7 h 6.4 l 1.1,2.5 c 0.2,0.4 0.5,0.8 0.9,1 0.4,0.2 0.8,0.4 1.3,0.4 h 2.1 z"
   id="path8-2"
   style="fill:#e87722" />
		<path
   class="st1"
   d="m 133.7,20.4 h -3.4 V 2 h 6.9 c 0.9,0 1.7,0.2 2.4,0.5 0.7,0.3 1.3,0.8 1.9,1.3 0.5,0.6 0.9,1.2 1.2,1.9 0.3,0.7 0.4,1.4 0.4,2.2 0,0.5 -0.1,1.1 -0.2,1.6 -0.1,0.5 -0.4,1 -0.6,1.5 -0.3,0.5 -0.6,0.9 -1,1.3 -0.4,0.4 -0.9,0.7 -1.4,1 0.9,1.2 1.8,2.4 2.7,3.7 0.9,1.2 1.8,2.4 2.7,3.6 h -2.6 c -0.2,0 -0.4,0 -0.6,-0.1 -0.2,-0.1 -0.5,-0.2 -0.8,-0.4 -0.3,-0.2 -0.5,-0.4 -0.8,-0.7 -0.3,-0.3 -0.6,-0.6 -0.8,-1 l -3.4,-4.5 h -2.5 z m 3.7,-10 c 0.3,0 0.6,-0.1 0.9,-0.2 0.3,-0.1 0.6,-0.3 0.8,-0.6 0.2,-0.2 0.4,-0.5 0.5,-0.8 0.1,-0.3 0.2,-0.6 0.2,-0.9 0,-0.3 -0.1,-0.7 -0.2,-1 -0.1,-0.3 -0.3,-0.6 -0.5,-0.8 -0.2,-0.2 -0.5,-0.4 -0.8,-0.6 -0.3,-0.1 -0.6,-0.2 -0.9,-0.2 h -3.7 v 5 h 3.7 z"
   id="path9-2"
   style="fill:#e87722" />
	</g>
	<g
   id="g13">
		<path
   class="st1"
   d="M 101.8,28.3 V 25 h 14.3 v 3.3 h -5.4 v 15.2 h -3.4 V 28.3 Z"
   id="path10-1"
   style="fill:#e87722" />
		<path
   class="st1"
   d="M 130.7,43.5 H 118.8 V 25.1 h 11.9 v 3.2 h -8.5 v 4.3 h 6.9 v 3.2 h -6.9 v 4.5 h 8.5 z"
   id="path11-6"
   style="fill:#e87722" />
		<path
   class="st1"
   d="m 136.4,34.3 c 0,0.8 0.2,1.6 0.5,2.4 0.3,0.7 0.8,1.4 1.3,1.9 0.6,0.5 1.2,1 1.9,1.3 0.7,0.3 1.5,0.5 2.4,0.5 0.6,0 1.3,-0.1 1.8,-0.3 0.6,-0.2 1.1,-0.5 1.6,-0.8 0.2,-0.1 0.4,-0.2 0.6,-0.3 0.2,-0.1 0.4,-0.1 0.7,-0.1 0.4,0 0.7,0.1 1,0.2 0.3,0.1 0.5,0.3 0.8,0.5 l 0.8,0.8 c -0.5,0.5 -1,1 -1.6,1.4 -0.6,0.4 -1.1,0.8 -1.8,1.1 -0.6,0.3 -1.2,0.5 -1.9,0.7 -0.7,0.2 -1.3,0.2 -2,0.2 -1.3,0 -2.5,-0.2 -3.7,-0.7 -1.1,-0.5 -2.1,-1.2 -3,-2 -0.9,-0.9 -1.5,-1.8 -2,-3 -0.5,-1.1 -0.7,-2.4 -0.7,-3.7 0,-0.9 0.1,-1.7 0.3,-2.5 0.2,-0.8 0.5,-1.6 1,-2.2 0.4,-0.7 0.9,-1.3 1.5,-1.9 0.6,-0.6 1.2,-1.1 1.9,-1.5 0.7,-0.4 1.5,-0.7 2.3,-0.9 0.8,-0.2 1.6,-0.3 2.5,-0.3 0.7,0 1.4,0.1 2,0.2 0.7,0.2 1.3,0.4 1.9,0.7 0.6,0.3 1.2,0.6 1.8,1.1 0.6,0.4 1.1,0.9 1.6,1.4 l -0.8,0.8 c -0.2,0.2 -0.5,0.4 -0.8,0.5 -0.3,0.1 -0.6,0.2 -1,0.2 -0.5,0 -0.9,-0.1 -1.3,-0.4 -0.5,-0.3 -1,-0.6 -1.6,-0.8 -0.6,-0.2 -1.2,-0.3 -1.8,-0.3 -0.8,0 -1.6,0.2 -2.4,0.5 -0.7,0.3 -1.4,0.7 -1.9,1.3 -0.6,0.5 -1,1.2 -1.3,1.9 -0.5,0.5 -0.6,1.3 -0.6,2.1 z"
   id="path12-8"
   style="fill:#e87722" />
		<path
   class="st1"
   d="m 169.2,43.5 h -3.4 v -7.7 h -9.1 v 7.7 h -3.4 V 25.1 h 3.4 v 7.6 h 9.1 v -7.6 h 3.4 z"
   id="path13-5"
   style="fill:#e87722" />
	</g>
	<g
   id="g14">
		<polygon
   class="st1"
   points="177,40.5 177.8,40.5 177.8,43.5 177.3,43.5 177.3,41 176.3,43.5 176,43.5 175,41 174.9,41 174.9,43.5 174.5,43.5 174.5,40.5 175.2,40.5 176.1,42.6 "
   id="polygon13"
   style="fill:#e87722" />
		<polygon
   class="st1"
   points="171.5,41 171.5,40.5 173.9,40.5 173.9,41 172.9,41 172.9,43.5 172.5,43.5 172.5,41 "
   id="polygon14"
   style="fill:#e87722" />
	</g>
</g></svg>
