<?xml version="1.0" encoding="UTF-8" standalone="no"?>
<!-- Created with Inkscape (http://www.inkscape.org/) -->

<svg
   width="109.72324mm"
   height="19.904701mm"
   viewBox="0 0 109.72324 19.904701"
   version="1.1"
   id="svg1"
   xml:space="preserve"
   inkscape:version="1.4.2 (f4327f4, 2025-05-13)"
   sodipodi:docname="logo.svg"
   xmlns:inkscape="http://www.inkscape.org/namespaces/inkscape"
   xmlns:sodipodi="http://sodipodi.sourceforge.net/DTD/sodipodi-0.dtd"
   xmlns="http://www.w3.org/2000/svg"
   xmlns:svg="http://www.w3.org/2000/svg"><sodipodi:namedview
     id="namedview1"
     pagecolor="#ffffff"
     bordercolor="#000000"
     borderopacity="0.25"
     inkscape:showpageshadow="2"
     inkscape:pageopacity="0.0"
     inkscape:pagecheckerboard="0"
     inkscape:deskcolor="#d1d1d1"
     inkscape:document-units="mm"
     inkscape:zoom="1.4235831"
     inkscape:cx="227.2435"
     inkscape:cy="25.63953"
     inkscape:window-width="1920"
     inkscape:window-height="1001"
     inkscape:window-x="-7"
     inkscape:window-y="-7"
     inkscape:window-maximized="1"
     inkscape:current-layer="g12" /><defs
     id="defs1" /><g
     inkscape:label="Layer 1"
     inkscape:groupmode="layer"
     id="layer1"
     transform="translate(-19.953667,-101.04399)"><g
       transform="matrix(0.03527778,0,0,-0.03527778,31.984966,115.0222)"
       id="g12"><path
         id="path16"
         style="fill:#ed1c24;fill-opacity:1;fill-rule:evenodd;stroke:none;stroke-width:2.26838"
         d="M -53.590106,275.33211 C -30.815543,363.14347 52.978517,400.69655 97.007827,395.81272 285.73728,371.37543 316.9956,114.59677 -53.590106,-167.99496 -424.17579,114.59677 -392.8948,371.37543 -204.16535,395.81272 c 43.98393,4.88383 127.823365,-32.66925 150.575244,-120.48061" /><g
         id="g3"
         transform="translate(0,-6.7294155)"><path
           id="path14"
           style="fill:#231f20;fill-opacity:1;fill-rule:evenodd;stroke:none"
           d="m 837.55019,264.40209 c -6.582,110.218 107.593,176.519 195.41401,115.047 v -50.5 c -40.39501,43.039 -147.19201,46.711 -150.18001,-44.789 -2.156,-66.3755 53.137,-93.5317 81.238,-93.5317 68.49601,0 86.50401,61.0347 77.27801,61.0347 h -53.56701 v 43.04 c 34.69201,0 68.94501,0 103.62901,0 3.516,-61.9185 -5.695,-94.8521 -42.152,-121.1919 -77.28501,-56.2109 -205.50401,-14.0625 -211.66001,90.8909 v 0" /><path
           id="path24"
           style="fill:#231f20;fill-opacity:1;fill-rule:evenodd;stroke:none"
           d="m 1887.9002,164.05809 -0.44,49.0273 c 28.34,-12.1328 65.53,-32.0937 78.82,-10.4101 30.11,49.4688 -60.22,56.4098 -80.59,92.8478 -19.92,36.453 -9.29,73.328 28.78,92.422 37.2,18.66 58.45,3.906 76.17,2.605 l -1.34,-43.828 c -37.63,26.035 -87.22,-11.277 -58,-35.574 20.81,-17.356 68.18,-35.149 82.8,-57.703 17.27,-27.7698 6.2,-58.5667 -9.3,-76.7894 -30.11,-34.27732 -78.37,-25.60544 -116.9,-12.5976 v 0" /><path
           id="path26"
           style="fill:#231f20;fill-opacity:1;fill-rule:evenodd;stroke:none"
           d="m 1813.7402,156.75337 v 235.59372 h 45.16 V 157.18306 l -45.16,-0.42969 v 0" /><path
           id="path28"
           style="fill:#231f20;fill-opacity:1;fill-rule:evenodd;stroke:none"
           d="m 2133.0602,156.16743 0.44,235.58566 116.89,0.879 v -40.781 l -70.84,-0.441 v -52.938 h 67.75 v -41.211 h -67.75 v -99.78506 l -46.49,-1.3086 v 0" /><path
           id="path30"
           style="fill:#231f20;fill-opacity:1;fill-rule:evenodd;stroke:none"
           d="m 424.76419,151.71431 -129.734,242.98878 49.1523,0.433 81.4727,-152.7304 79.695,151.8634 54.91,0.434 -135.496,-242.98878 v 0" /><path
           id="path32"
           style="fill:#231f20;fill-opacity:1;fill-rule:evenodd;stroke:none"
           d="m 572.90519,157.52679 v 236.4613 h 47.379 V 157.0854 l -47.379,0.44139 v 0" /><path
           id="path34"
           style="fill:#231f20;fill-opacity:1;fill-rule:evenodd;stroke:none"
           d="m 653.29219,156.65571 -0.891,236.90238 h 69.074 c 21.258,0 61.993,-10.414 77.493,-40.352 19.917,-37.312 0,-68.988 -25.243,-88.945 32.77,-35.1444 73.063,-73.7577 104.496,-107.60538 l -55.347,0.42969 -36.313,36.01559 -70.84,69.4261 -18.597,19.957 c 82.359,-13.016 89.437,86.777 0.886,71.593 V 157.0854 l -44.718,-0.42969 v 0" /><path
           id="path36"
           style="fill:#231f20;fill-opacity:1;fill-rule:evenodd;stroke:none"
           d="m 1104.9912,157.95259 v 234.3085 h 43.828 v -234.3085 h -43.828 v 0" /><path
           id="path38"
           style="fill:#231f20;fill-opacity:1;fill-rule:evenodd;stroke:none"
           d="m 1183.3502,158.65569 0.442,238.2034 h 53.582 l 104.496,-164.4338 v 164.0038 l 44.27,0.43 v -237.762 l -53.13,-0.4414 -106.71,166.1834 v -166.1834 h -42.95 v 0" /><path
           id="path40"
           style="fill:#231f20;fill-opacity:1;fill-rule:evenodd;stroke:none"
           d="m 1417.2502,158.51119 1.32,235.6059 h 46.94 v -236.0356 l -48.26,0.4297 v 0" /><path
           id="path42"
           style="fill:#231f20;fill-opacity:1;fill-rule:evenodd;stroke:none"
           d="m 1580.0102,247.86309 59.78,-0.4418 -29.67,57.7108 z m -97.53,-89.6722 119.11,239.5042 7.08,0.433 119.11,-240.80831 h -49.59 l -27.45,53.80861 h -92.55 l -26.12,-52.9375 h -49.59 v 0" /><path
           id="path44"
           style="fill:#231f20;fill-opacity:1;fill-rule:evenodd;stroke:none"
           d="m 2393.2402,361.59709 c -49.56,0 -89.98,-39.27 -89.98,-87.402 0,-48.1409 40.42,-87.4027 89.98,-87.4027 49.55,0 89.97,39.2618 89.97,87.4027 0,48.132 -40.42,87.402 -89.97,87.402 z m -129.08,-91.73 c -1.33,65.078 51.37,134.062 135.06,128.867 87.23,-5.645 127.96,-71.16 125.74,-127.137 -2.65,-72.0117 -60.21,-124.082 -128.41,-124.082 -72.16,0 -130.61,49.9023 -132.39,122.352 v 0" /><path
           id="path48"
           style="fill:#231f20;fill-opacity:1;fill-rule:evenodd;stroke:none"
           d="m 2544.2802,157.71039 -0.88,236.9027 h 69.06 c 21.27,0 61.99,-10.418 77.5,-40.356 19.92,-37.312 0,-68.988 -25.24,-88.945 32.76,-35.1447 73.05,-73.7658 104.5,-107.6017 l -55.35,0.4297 -36.31,36.0156 -70.84,69.4184 -18.6,19.957 c 82.35,-13.012 89.44,86.781 0.88,71.589 v -196.98 l -44.72,-0.4297 v 0" /></g><text
         xml:space="preserve"
         style="font-size:352.719px;line-height:1;font-family:'Palatino Linotype';-inkscape-font-specification:'Palatino Linotype';text-align:center;writing-mode:lr-tb;direction:ltr;text-anchor:middle;opacity:1;fill:#000000;fill-opacity:1;stroke:#000000;stroke-width:18.4031"
         x="1175.7083"
         y="157.66139"
         id="text1"
         transform="scale(1,-1)"><tspan
           sodipodi:role="line"
           style="font-style:normal;font-variant:normal;font-weight:normal;font-stretch:normal;font-family:'Palatino Linotype';-inkscape-font-specification:'Palatino Linotype';fill:#000000;fill-opacity:1;stroke:none;stroke-width:18.4031"
           x="1175.7083"
           y="157.66139"
           id="tspan2">ROBOTICS</tspan></text></g></g></svg>
